<svg width="197" height="51" viewBox="0 0 197 51" fill="none" xmlns="http://www.w3.org/2000/svg">
<path d="M9.75 4L9.75 24" stroke="#FF921B" stroke-width="1.5" stroke-linecap="round"/>
<path d="M5.75 6L5.75 22" stroke="#FF921B" stroke-width="2" stroke-linecap="round"/>
<path d="M2 8L2 20" stroke="#FF921B" stroke-width="2.5" stroke-linecap="round"/>
<path d="M37.0934 1.744H39.7814L44.4854 14.992L44.0774 14.824L47.5094 5.944L48.5894 9.088L44.0054 19.792L37.0934 1.744ZM45.4214 1.744H47.7494L52.8374 14.8L52.3574 14.704L56.8454 1.744H59.3174L52.5014 19.768L45.4214 1.744ZM64.1423 19.24C63.2143 19.24 62.3663 19.04 61.5983 18.64C60.8463 18.24 60.2463 17.656 59.7983 16.888C59.3663 16.104 59.1503 15.152 59.1503 14.032C59.1503 12.928 59.3823 11.976 59.8463 11.176C60.3103 10.36 60.9263 9.736 61.6943 9.304C62.4783 8.872 63.3343 8.656 64.2623 8.656C65.1903 8.656 65.9743 8.872 66.6143 9.304C67.2543 9.72 67.7423 10.216 68.0783 10.792L67.9343 11.176L68.1503 9.064H70.2143V19H67.9823V16.408L68.2223 16.984C68.1583 17.144 68.0143 17.352 67.7903 17.608C67.5823 17.848 67.2943 18.096 66.9263 18.352C66.5743 18.608 66.1663 18.824 65.7023 19C65.2383 19.16 64.7183 19.24 64.1423 19.24ZM64.7423 17.392C65.3023 17.392 65.8063 17.288 66.2543 17.08C66.7023 16.872 67.0703 16.584 67.3583 16.216C67.6623 15.832 67.8703 15.376 67.9823 14.848V12.904C67.8543 12.424 67.6303 12.008 67.3103 11.656C66.9903 11.288 66.6063 11.008 66.1583 10.816C65.7103 10.608 65.2143 10.504 64.6703 10.504C64.0783 10.504 63.5343 10.648 63.0383 10.936C62.5423 11.224 62.1423 11.624 61.8383 12.136C61.5503 12.648 61.4063 13.248 61.4063 13.936C61.4063 14.576 61.5583 15.16 61.8623 15.688C62.1663 16.216 62.5743 16.632 63.0863 16.936C63.5983 17.24 64.1503 17.392 64.7423 17.392ZM76.0688 9.064L76.2848 11.944L76.1648 11.56C76.4208 10.952 76.7888 10.44 77.2688 10.024C77.7648 9.592 78.2768 9.264 78.8048 9.04C79.3488 8.8 79.8208 8.68 80.2208 8.68L80.1008 10.888C79.3488 10.84 78.6848 10.984 78.1088 11.32C77.5488 11.656 77.1008 12.104 76.7648 12.664C76.4448 13.224 76.2848 13.824 76.2848 14.464V19H74.0768V9.064H76.0688ZM87.2864 19.24C86.1504 19.24 85.1744 19.016 84.3584 18.568C83.5424 18.104 82.9104 17.48 82.4624 16.696C82.0304 15.896 81.8144 14.984 81.8144 13.96C81.8144 12.984 82.0624 12.096 82.5584 11.296C83.0544 10.496 83.7184 9.856 84.5504 9.376C85.3824 8.896 86.3104 8.656 87.3344 8.656C88.6464 8.656 89.7344 9.04 90.5984 9.808C91.4624 10.576 92.0464 11.632 92.3504 12.976L84.1664 15.856L83.6384 14.536L90.3584 12.088L89.8784 12.4C89.6864 11.872 89.3664 11.416 88.9184 11.032C88.4704 10.632 87.8864 10.432 87.1664 10.432C86.5584 10.432 86.0144 10.584 85.5344 10.888C85.0544 11.176 84.6784 11.576 84.4064 12.088C84.1344 12.6 83.9984 13.184 83.9984 13.84C83.9984 14.528 84.1424 15.136 84.4304 15.664C84.7184 16.176 85.1104 16.584 85.6064 16.888C86.1184 17.176 86.6944 17.32 87.3344 17.32C87.7664 17.32 88.1824 17.24 88.5824 17.08C88.9984 16.92 89.3824 16.712 89.7344 16.456L90.7664 18.112C90.2704 18.448 89.7104 18.72 89.0864 18.928C88.4784 19.136 87.8784 19.24 87.2864 19.24ZM95.1471 19V0.423999H97.3311V11.368L97.2831 10.96C97.6191 10.304 98.1311 9.76 98.8191 9.328C99.5231 8.896 100.347 8.68 101.291 8.68C102.235 8.68 103.003 8.96 103.595 9.52C104.203 10.064 104.515 10.776 104.531 11.656V19H102.275V12.448C102.259 11.904 102.099 11.464 101.795 11.128C101.507 10.776 101.051 10.6 100.427 10.6C99.8511 10.6 99.3311 10.768 98.8671 11.104C98.4031 11.424 98.0351 11.864 97.7631 12.424C97.5071 12.984 97.3791 13.624 97.3791 14.344V19H95.1471ZM107.549 13.936C107.549 12.944 107.781 12.048 108.245 11.248C108.725 10.448 109.381 9.816 110.213 9.352C111.045 8.888 111.989 8.656 113.045 8.656C114.133 8.656 115.085 8.888 115.901 9.352C116.717 9.816 117.349 10.448 117.797 11.248C118.245 12.048 118.469 12.944 118.469 13.936C118.469 14.928 118.245 15.832 117.797 16.648C117.349 17.448 116.709 18.08 115.877 18.544C115.061 19.008 114.109 19.24 113.021 19.24C111.965 19.24 111.021 19.024 110.189 18.592C109.373 18.144 108.725 17.528 108.245 16.744C107.781 15.944 107.549 15.008 107.549 13.936ZM109.781 13.96C109.781 14.6 109.925 15.184 110.213 15.712C110.501 16.224 110.885 16.632 111.365 16.936C111.861 17.24 112.405 17.392 112.997 17.392C113.621 17.392 114.173 17.24 114.653 16.936C115.149 16.632 115.533 16.224 115.805 15.712C116.077 15.184 116.213 14.6 116.213 13.96C116.213 13.32 116.077 12.744 115.805 12.232C115.533 11.704 115.149 11.288 114.653 10.984C114.173 10.664 113.621 10.504 112.997 10.504C112.389 10.504 111.837 10.664 111.341 10.984C110.861 11.304 110.477 11.728 110.189 12.256C109.917 12.768 109.781 13.336 109.781 13.96ZM124.635 19.384C123.739 19.384 122.995 19.112 122.403 18.568C121.827 18.008 121.523 17.288 121.491 16.408V9.064H123.723V15.616C123.755 16.16 123.907 16.6 124.179 16.936C124.467 17.272 124.915 17.448 125.523 17.464C126.083 17.464 126.579 17.304 127.011 16.984C127.459 16.648 127.819 16.2 128.091 15.64C128.363 15.064 128.499 14.416 128.499 13.696V9.064H130.731V19H128.691L128.499 16.552L128.619 16.984C128.427 17.448 128.131 17.864 127.731 18.232C127.347 18.584 126.891 18.864 126.363 19.072C125.835 19.28 125.259 19.384 124.635 19.384ZM137.376 19.192C136.672 19.192 135.984 19.072 135.312 18.832C134.656 18.576 134.112 18.2 133.68 17.704L134.616 16.408C135.032 16.808 135.456 17.112 135.888 17.32C136.336 17.512 136.776 17.608 137.208 17.608C137.528 17.608 137.824 17.568 138.096 17.488C138.368 17.408 138.584 17.28 138.744 17.104C138.92 16.912 139.008 16.656 139.008 16.336C139.008 15.984 138.888 15.704 138.648 15.496C138.424 15.288 138.128 15.12 137.76 14.992C137.408 14.864 137.032 14.744 136.632 14.632C135.816 14.36 135.192 13.984 134.76 13.504C134.328 13.024 134.112 12.44 134.112 11.752C134.112 11.224 134.24 10.736 134.496 10.288C134.768 9.824 135.16 9.448 135.672 9.16C136.2 8.872 136.848 8.728 137.616 8.728C138.304 8.728 138.92 8.816 139.464 8.992C140.008 9.152 140.52 9.424 141 9.808L140.112 11.2C139.824 10.896 139.48 10.672 139.08 10.528C138.68 10.384 138.32 10.304 138 10.288C137.728 10.272 137.464 10.312 137.208 10.408C136.968 10.504 136.768 10.64 136.608 10.816C136.448 10.992 136.368 11.2 136.368 11.44C136.368 11.776 136.48 12.048 136.704 12.256C136.928 12.464 137.216 12.632 137.568 12.76C137.936 12.872 138.296 12.992 138.648 13.12C139.144 13.264 139.584 13.456 139.968 13.696C140.352 13.936 140.656 14.232 140.88 14.584C141.12 14.936 141.24 15.376 141.24 15.904C141.24 16.496 141.096 17.048 140.808 17.56C140.536 18.056 140.112 18.456 139.536 18.76C138.976 19.048 138.256 19.192 137.376 19.192ZM148.974 19.24C147.838 19.24 146.862 19.016 146.046 18.568C145.23 18.104 144.598 17.48 144.15 16.696C143.718 15.896 143.502 14.984 143.502 13.96C143.502 12.984 143.75 12.096 144.246 11.296C144.742 10.496 145.406 9.856 146.238 9.376C147.07 8.896 147.998 8.656 149.022 8.656C150.334 8.656 151.422 9.04 152.286 9.808C153.15 10.576 153.734 11.632 154.038 12.976L145.854 15.856L145.326 14.536L152.046 12.088L151.566 12.4C151.374 11.872 151.054 11.416 150.606 11.032C150.158 10.632 149.574 10.432 148.854 10.432C148.246 10.432 147.702 10.584 147.222 10.888C146.742 11.176 146.366 11.576 146.094 12.088C145.822 12.6 145.686 13.184 145.686 13.84C145.686 14.528 145.83 15.136 146.118 15.664C146.406 16.176 146.798 16.584 147.294 16.888C147.806 17.176 148.382 17.32 149.022 17.32C149.454 17.32 149.87 17.24 150.27 17.08C150.686 16.92 151.07 16.712 151.422 16.456L152.454 18.112C151.958 18.448 151.398 18.72 150.774 18.928C150.166 19.136 149.566 19.24 148.974 19.24Z" fill="url(#paint0_linear_104_45)"/>
<path d="M35.917 44.928C35.917 45.32 36.009 45.672 36.193 45.984C36.385 46.288 36.637 46.528 36.949 46.704C37.261 46.88 37.613 46.968 38.005 46.968C38.413 46.968 38.777 46.88 39.097 46.704C39.417 46.528 39.669 46.288 39.853 45.984C40.037 45.672 40.129 45.32 40.129 44.928V39.324H41.269V44.964C41.269 45.596 41.121 46.148 40.825 46.62C40.537 47.092 40.145 47.456 39.649 47.712C39.161 47.968 38.613 48.096 38.005 48.096C37.397 48.096 36.849 47.968 36.361 47.712C35.873 47.456 35.485 47.092 35.197 46.62C34.909 46.148 34.765 45.596 34.765 44.964V39.324H35.917V44.928ZM44.3703 43.032L44.4663 44.244L44.4183 44.052C44.5783 43.684 44.8383 43.392 45.1983 43.176C45.5583 42.952 45.9743 42.84 46.4463 42.84C46.9183 42.84 47.3023 42.98 47.5983 43.26C47.9023 43.532 48.0583 43.888 48.0663 44.328V48H46.9383V44.724C46.9303 44.452 46.8503 44.232 46.6983 44.064C46.5543 43.888 46.3263 43.8 46.0143 43.8C45.7263 43.8 45.4663 43.88 45.2343 44.04C45.0023 44.2 44.8183 44.42 44.6823 44.7C44.5543 44.98 44.4903 45.304 44.4903 45.672V48H43.3743V43.032H44.3703ZM50.0072 38.712H51.1232V48H50.0072V38.712ZM55.358 48.12C54.79 48.12 54.302 48.008 53.894 47.784C53.486 47.552 53.17 47.24 52.946 46.848C52.73 46.448 52.622 45.992 52.622 45.48C52.622 44.992 52.746 44.548 52.994 44.148C53.242 43.748 53.574 43.428 53.99 43.188C54.406 42.948 54.87 42.828 55.382 42.828C56.038 42.828 56.582 43.02 57.014 43.404C57.446 43.788 57.738 44.316 57.89 44.988L53.798 46.428L53.534 45.768L56.894 44.544L56.654 44.7C56.558 44.436 56.398 44.208 56.174 44.016C55.95 43.816 55.658 43.716 55.298 43.716C54.994 43.716 54.722 43.792 54.482 43.944C54.242 44.088 54.054 44.288 53.918 44.544C53.782 44.8 53.714 45.092 53.714 45.42C53.714 45.764 53.786 46.068 53.93 46.332C54.074 46.588 54.27 46.792 54.518 46.944C54.774 47.088 55.062 47.16 55.382 47.16C55.598 47.16 55.806 47.12 56.006 47.04C56.214 46.96 56.406 46.856 56.582 46.728L57.098 47.556C56.85 47.724 56.57 47.86 56.258 47.964C55.954 48.068 55.654 48.12 55.358 48.12ZM61.3524 48.12C60.8884 48.12 60.4644 48.02 60.0804 47.82C59.7044 47.62 59.4044 47.328 59.1804 46.944C58.9644 46.552 58.8564 46.076 58.8564 45.516C58.8564 44.964 58.9724 44.488 59.2044 44.088C59.4364 43.68 59.7444 43.368 60.1284 43.152C60.5204 42.936 60.9484 42.828 61.4124 42.828C61.8764 42.828 62.2684 42.936 62.5884 43.152C62.9084 43.36 63.1524 43.608 63.3204 43.896L63.2484 44.088L63.3564 43.032H64.3884V48H63.2724V46.704L63.3924 46.992C63.3604 47.072 63.2884 47.176 63.1764 47.304C63.0724 47.424 62.9284 47.548 62.7444 47.676C62.5684 47.804 62.3644 47.912 62.1324 48C61.9004 48.08 61.6404 48.12 61.3524 48.12ZM61.6524 47.196C61.9324 47.196 62.1844 47.144 62.4084 47.04C62.6324 46.936 62.8164 46.792 62.9604 46.608C63.1124 46.416 63.2164 46.188 63.2724 45.924V44.952C63.2084 44.712 63.0964 44.504 62.9364 44.328C62.7764 44.144 62.5844 44.004 62.3604 43.908C62.1364 43.804 61.8884 43.752 61.6164 43.752C61.3204 43.752 61.0484 43.824 60.8004 43.968C60.5524 44.112 60.3524 44.312 60.2004 44.568C60.0564 44.824 59.9844 45.124 59.9844 45.468C59.9844 45.788 60.0604 46.08 60.2124 46.344C60.3644 46.608 60.5684 46.816 60.8244 46.968C61.0804 47.12 61.3564 47.196 61.6524 47.196ZM67.7117 48.096C67.3597 48.096 67.0157 48.036 66.6797 47.916C66.3517 47.788 66.0797 47.6 65.8637 47.352L66.3317 46.704C66.5397 46.904 66.7517 47.056 66.9677 47.16C67.1917 47.256 67.4117 47.304 67.6277 47.304C67.7877 47.304 67.9357 47.284 68.0717 47.244C68.2077 47.204 68.3157 47.14 68.3957 47.052C68.4837 46.956 68.5277 46.828 68.5277 46.668C68.5277 46.492 68.4677 46.352 68.3477 46.248C68.2357 46.144 68.0877 46.06 67.9037 45.996C67.7277 45.932 67.5397 45.872 67.3397 45.816C66.9317 45.68 66.6197 45.492 66.4037 45.252C66.1877 45.012 66.0797 44.72 66.0797 44.376C66.0797 44.112 66.1437 43.868 66.2717 43.644C66.4077 43.412 66.6037 43.224 66.8597 43.08C67.1237 42.936 67.4477 42.864 67.8317 42.864C68.1757 42.864 68.4837 42.908 68.7557 42.996C69.0277 43.076 69.2837 43.212 69.5237 43.404L69.0797 44.1C68.9357 43.948 68.7637 43.836 68.5637 43.764C68.3637 43.692 68.1837 43.652 68.0237 43.644C67.8877 43.636 67.7557 43.656 67.6277 43.704C67.5077 43.752 67.4077 43.82 67.3277 43.908C67.2477 43.996 67.2077 44.1 67.2077 44.22C67.2077 44.388 67.2637 44.524 67.3757 44.628C67.4877 44.732 67.6317 44.816 67.8077 44.88C67.9917 44.936 68.1717 44.996 68.3477 45.06C68.5957 45.132 68.8157 45.228 69.0077 45.348C69.1997 45.468 69.3517 45.616 69.4637 45.792C69.5837 45.968 69.6437 46.188 69.6437 46.452C69.6437 46.748 69.5717 47.024 69.4277 47.28C69.2917 47.528 69.0797 47.728 68.7917 47.88C68.5117 48.024 68.1517 48.096 67.7117 48.096ZM71.2064 48V38.712H72.2984V44.184L72.2744 43.98C72.4424 43.652 72.6984 43.38 73.0424 43.164C73.3944 42.948 73.8064 42.84 74.2784 42.84C74.7504 42.84 75.1344 42.98 75.4304 43.26C75.7344 43.532 75.8904 43.888 75.8984 44.328V48H74.7704V44.724C74.7624 44.452 74.6824 44.232 74.5304 44.064C74.3864 43.888 74.1584 43.8 73.8464 43.8C73.5584 43.8 73.2984 43.884 73.0664 44.052C72.8344 44.212 72.6504 44.432 72.5144 44.712C72.3864 44.992 72.3224 45.312 72.3224 45.672V48H71.2064ZM84.2161 45.108L81.0001 39.324H82.4281L85.0081 44.112L84.6481 44.136L87.2041 39.324H88.6201L85.3801 45.108V48H84.2161V45.108ZM88.2236 45.468C88.2236 44.972 88.3396 44.524 88.5716 44.124C88.8116 43.724 89.1396 43.408 89.5556 43.176C89.9716 42.944 90.4436 42.828 90.9716 42.828C91.5156 42.828 91.9916 42.944 92.3996 43.176C92.8076 43.408 93.1236 43.724 93.3476 44.124C93.5716 44.524 93.6836 44.972 93.6836 45.468C93.6836 45.964 93.5716 46.416 93.3476 46.824C93.1236 47.224 92.8036 47.54 92.3876 47.772C91.9796 48.004 91.5036 48.12 90.9596 48.12C90.4316 48.12 89.9596 48.012 89.5436 47.796C89.1356 47.572 88.8116 47.264 88.5716 46.872C88.3396 46.472 88.2236 46.004 88.2236 45.468ZM89.3396 45.48C89.3396 45.8 89.4116 46.092 89.5556 46.356C89.6996 46.612 89.8916 46.816 90.1316 46.968C90.3796 47.12 90.6516 47.196 90.9476 47.196C91.2596 47.196 91.5356 47.12 91.7756 46.968C92.0236 46.816 92.2156 46.612 92.3516 46.356C92.4876 46.092 92.5556 45.8 92.5556 45.48C92.5556 45.16 92.4876 44.872 92.3516 44.616C92.2156 44.352 92.0236 44.144 91.7756 43.992C91.5356 43.832 91.2596 43.752 90.9476 43.752C90.6436 43.752 90.3676 43.832 90.1196 43.992C89.8796 44.152 89.6876 44.364 89.5436 44.628C89.4076 44.884 89.3396 45.168 89.3396 45.48ZM96.7667 48.192C96.3187 48.192 95.9467 48.056 95.6507 47.784C95.3627 47.504 95.2107 47.144 95.1947 46.704V43.032H96.3107V46.308C96.3267 46.58 96.4027 46.8 96.5387 46.968C96.6827 47.136 96.9067 47.224 97.2107 47.232C97.4907 47.232 97.7387 47.152 97.9547 46.992C98.1787 46.824 98.3587 46.6 98.4947 46.32C98.6307 46.032 98.6987 45.708 98.6987 45.348V43.032H99.8147V48H98.7947L98.6987 46.776L98.7587 46.992C98.6627 47.224 98.5147 47.432 98.3147 47.616C98.1227 47.792 97.8947 47.932 97.6307 48.036C97.3667 48.14 97.0787 48.192 96.7667 48.192ZM102.741 43.032L102.849 44.472L102.789 44.28C102.917 43.976 103.101 43.72 103.341 43.512C103.589 43.296 103.845 43.132 104.109 43.02C104.381 42.9 104.617 42.84 104.817 42.84L104.757 43.944C104.381 43.92 104.049 43.992 103.761 44.16C103.481 44.328 103.257 44.552 103.089 44.832C102.929 45.112 102.849 45.412 102.849 45.732V48H101.745V43.032H102.741ZM112.646 39.324C113.278 39.324 113.818 39.432 114.266 39.648C114.714 39.856 115.058 40.16 115.298 40.56C115.546 40.96 115.67 41.444 115.67 42.012C115.67 42.356 115.618 42.696 115.514 43.032C115.41 43.36 115.242 43.66 115.01 43.932C114.786 44.196 114.49 44.408 114.122 44.568C113.754 44.728 113.306 44.808 112.778 44.808H111.494V48H110.33V39.324H112.646ZM112.766 43.692C113.11 43.692 113.394 43.636 113.618 43.524C113.842 43.412 114.018 43.272 114.146 43.104C114.274 42.928 114.366 42.744 114.422 42.552C114.478 42.36 114.506 42.188 114.506 42.036C114.506 41.86 114.478 41.68 114.422 41.496C114.366 41.304 114.27 41.132 114.134 40.98C114.006 40.82 113.834 40.692 113.618 40.596C113.41 40.492 113.15 40.44 112.838 40.44H111.494V43.692H112.766ZM116.759 45.468C116.759 44.972 116.875 44.524 117.107 44.124C117.347 43.724 117.675 43.408 118.091 43.176C118.507 42.944 118.979 42.828 119.507 42.828C120.051 42.828 120.527 42.944 120.935 43.176C121.343 43.408 121.659 43.724 121.883 44.124C122.107 44.524 122.219 44.972 122.219 45.468C122.219 45.964 122.107 46.416 121.883 46.824C121.659 47.224 121.339 47.54 120.923 47.772C120.515 48.004 120.039 48.12 119.495 48.12C118.967 48.12 118.495 48.012 118.079 47.796C117.671 47.572 117.347 47.264 117.107 46.872C116.875 46.472 116.759 46.004 116.759 45.468ZM117.875 45.48C117.875 45.8 117.947 46.092 118.091 46.356C118.235 46.612 118.427 46.816 118.667 46.968C118.915 47.12 119.187 47.196 119.483 47.196C119.795 47.196 120.071 47.12 120.311 46.968C120.559 46.816 120.751 46.612 120.887 46.356C121.023 46.092 121.091 45.8 121.091 45.48C121.091 45.16 121.023 44.872 120.887 44.616C120.751 44.352 120.559 44.144 120.311 43.992C120.071 43.832 119.795 43.752 119.483 43.752C119.179 43.752 118.903 43.832 118.655 43.992C118.415 44.152 118.223 44.364 118.079 44.628C117.943 44.884 117.875 45.168 117.875 45.48ZM124.21 40.848H125.326V43.056H126.694V43.932H125.326V48H124.21V43.932H123.298V43.056H124.21V40.848ZM130.346 48.12C129.778 48.12 129.29 48.008 128.882 47.784C128.474 47.552 128.158 47.24 127.934 46.848C127.718 46.448 127.61 45.992 127.61 45.48C127.61 44.992 127.734 44.548 127.982 44.148C128.23 43.748 128.562 43.428 128.978 43.188C129.394 42.948 129.858 42.828 130.37 42.828C131.026 42.828 131.57 43.02 132.002 43.404C132.434 43.788 132.726 44.316 132.878 44.988L128.786 46.428L128.522 45.768L131.882 44.544L131.642 44.7C131.546 44.436 131.386 44.208 131.162 44.016C130.938 43.816 130.646 43.716 130.286 43.716C129.982 43.716 129.71 43.792 129.47 43.944C129.23 44.088 129.042 44.288 128.906 44.544C128.77 44.8 128.702 45.092 128.702 45.42C128.702 45.764 128.774 46.068 128.918 46.332C129.062 46.588 129.258 46.792 129.506 46.944C129.762 47.088 130.05 47.16 130.37 47.16C130.586 47.16 130.794 47.12 130.994 47.04C131.202 46.96 131.394 46.856 131.57 46.728L132.086 47.556C131.838 47.724 131.558 47.86 131.246 47.964C130.942 48.068 130.642 48.12 130.346 48.12ZM135.273 43.032L135.369 44.244L135.321 44.052C135.481 43.684 135.741 43.392 136.101 43.176C136.461 42.952 136.877 42.84 137.349 42.84C137.821 42.84 138.205 42.98 138.501 43.26C138.805 43.532 138.961 43.888 138.969 44.328V48H137.841V44.724C137.833 44.452 137.753 44.232 137.601 44.064C137.457 43.888 137.229 43.8 136.917 43.8C136.629 43.8 136.369 43.88 136.137 44.04C135.905 44.2 135.721 44.42 135.585 44.7C135.457 44.98 135.393 45.304 135.393 45.672V48H134.277V43.032H135.273ZM141.39 40.848H142.506V43.056H143.874V43.932H142.506V48H141.39V43.932H140.478V43.056H141.39V40.848ZM145.222 43.032H146.338V48H145.222V43.032ZM145.138 41.232C145.138 41.056 145.206 40.908 145.342 40.788C145.486 40.668 145.642 40.608 145.81 40.608C145.978 40.608 146.126 40.668 146.254 40.788C146.39 40.908 146.458 41.056 146.458 41.232C146.458 41.416 146.39 41.568 146.254 41.688C146.126 41.8 145.978 41.856 145.81 41.856C145.642 41.856 145.486 41.796 145.342 41.676C145.206 41.556 145.138 41.408 145.138 41.232ZM150.333 48.12C149.869 48.12 149.445 48.02 149.061 47.82C148.685 47.62 148.385 47.328 148.161 46.944C147.945 46.552 147.837 46.076 147.837 45.516C147.837 44.964 147.953 44.488 148.185 44.088C148.417 43.68 148.725 43.368 149.109 43.152C149.501 42.936 149.929 42.828 150.393 42.828C150.857 42.828 151.249 42.936 151.569 43.152C151.889 43.36 152.133 43.608 152.301 43.896L152.229 44.088L152.337 43.032H153.369V48H152.253V46.704L152.373 46.992C152.341 47.072 152.269 47.176 152.157 47.304C152.053 47.424 151.909 47.548 151.725 47.676C151.549 47.804 151.345 47.912 151.113 48C150.881 48.08 150.621 48.12 150.333 48.12ZM150.633 47.196C150.913 47.196 151.165 47.144 151.389 47.04C151.613 46.936 151.797 46.792 151.941 46.608C152.093 46.416 152.197 46.188 152.253 45.924V44.952C152.189 44.712 152.077 44.504 151.917 44.328C151.757 44.144 151.565 44.004 151.341 43.908C151.117 43.804 150.869 43.752 150.597 43.752C150.301 43.752 150.029 43.824 149.781 43.968C149.533 44.112 149.333 44.312 149.181 44.568C149.037 44.824 148.965 45.124 148.965 45.468C148.965 45.788 149.041 46.08 149.193 46.344C149.345 46.608 149.549 46.816 149.805 46.968C150.061 47.12 150.337 47.196 150.633 47.196ZM155.3 38.712H156.416V48H155.3V38.712Z" fill="url(#paint1_linear_104_45)"/>
<line x1="9.75" y1="13.5" x2="29.75" y2="13.5" stroke="#FF921B" stroke-width="3"/>
<line x1="0.75" y1="-0.75" x2="19.25" y2="-0.75" transform="matrix(4.37114e-08 1 1 -4.37114e-08 188 6)" stroke="#FF921B" stroke-width="1.5" stroke-linecap="round"/>
<path d="M191.5 8L191.5 24" stroke="#FF921B" stroke-width="2" stroke-linecap="round"/>
<path d="M195.5 10L195.5 22" stroke="#FF921B" stroke-width="2.5" stroke-linecap="round"/>
<line x1="187" y1="16.5" x2="167" y2="16.5" stroke="#FF921B" stroke-width="3"/>
<defs>
<linearGradient id="paint0_linear_104_45" x1="24" y1="13" x2="167" y2="13" gradientUnits="userSpaceOnUse">
<stop stop-color="#F66844"/>
<stop offset="1" stop-color="#FF921B" stop-opacity="0.5"/>
</linearGradient>
<linearGradient id="paint1_linear_104_45" x1="24" y1="39" x2="167" y2="48" gradientUnits="userSpaceOnUse">
<stop stop-color="#F66844"/>
<stop offset="1" stop-color="#FF921B" stop-opacity="0.5"/>
</linearGradient>
</defs>
</svg>
