<svg width="188" height="51" viewBox="0 0 188 51" fill="none" xmlns="http://www.w3.org/2000/svg">
<path d="M28.0934 1.744H30.7814L35.4854 14.992L35.0774 14.824L38.5094 5.944L39.5894 9.088L35.0054 19.792L28.0934 1.744ZM36.4214 1.744H38.7494L43.8374 14.8L43.3574 14.704L47.8454 1.744H50.3174L43.5014 19.768L36.4214 1.744ZM55.1423 19.24C54.2143 19.24 53.3663 19.04 52.5983 18.64C51.8463 18.24 51.2463 17.656 50.7983 16.888C50.3663 16.104 50.1503 15.152 50.1503 14.032C50.1503 12.928 50.3823 11.976 50.8463 11.176C51.3103 10.36 51.9263 9.736 52.6943 9.304C53.4783 8.872 54.3343 8.656 55.2623 8.656C56.1903 8.656 56.9743 8.872 57.6143 9.304C58.2543 9.72 58.7423 10.216 59.0783 10.792L58.9343 11.176L59.1503 9.064H61.2143V19H58.9823V16.408L59.2223 16.984C59.1583 17.144 59.0143 17.352 58.7903 17.608C58.5823 17.848 58.2943 18.096 57.9263 18.352C57.5743 18.608 57.1663 18.824 56.7023 19C56.2383 19.16 55.7183 19.24 55.1423 19.24ZM55.7423 17.392C56.3023 17.392 56.8063 17.288 57.2543 17.08C57.7023 16.872 58.0703 16.584 58.3583 16.216C58.6623 15.832 58.8703 15.376 58.9823 14.848V12.904C58.8543 12.424 58.6303 12.008 58.3103 11.656C57.9903 11.288 57.6063 11.008 57.1583 10.816C56.7103 10.608 56.2143 10.504 55.6703 10.504C55.0783 10.504 54.5343 10.648 54.0383 10.936C53.5423 11.224 53.1423 11.624 52.8383 12.136C52.5503 12.648 52.4063 13.248 52.4063 13.936C52.4063 14.576 52.5583 15.16 52.8623 15.688C53.1663 16.216 53.5743 16.632 54.0863 16.936C54.5983 17.24 55.1503 17.392 55.7423 17.392ZM67.0688 9.064L67.2848 11.944L67.1648 11.56C67.4208 10.952 67.7888 10.44 68.2688 10.024C68.7648 9.592 69.2768 9.264 69.8048 9.04C70.3488 8.8 70.8208 8.68 71.2208 8.68L71.1008 10.888C70.3488 10.84 69.6848 10.984 69.1088 11.32C68.5488 11.656 68.1008 12.104 67.7648 12.664C67.4448 13.224 67.2848 13.824 67.2848 14.464V19H65.0768V9.064H67.0688ZM78.2864 19.24C77.1504 19.24 76.1744 19.016 75.3584 18.568C74.5424 18.104 73.9104 17.48 73.4624 16.696C73.0304 15.896 72.8144 14.984 72.8144 13.96C72.8144 12.984 73.0624 12.096 73.5584 11.296C74.0544 10.496 74.7184 9.856 75.5504 9.376C76.3824 8.896 77.3104 8.656 78.3344 8.656C79.6464 8.656 80.7344 9.04 81.5984 9.808C82.4624 10.576 83.0464 11.632 83.3504 12.976L75.1664 15.856L74.6384 14.536L81.3584 12.088L80.8784 12.4C80.6864 11.872 80.3664 11.416 79.9184 11.032C79.4704 10.632 78.8864 10.432 78.1664 10.432C77.5584 10.432 77.0144 10.584 76.5344 10.888C76.0544 11.176 75.6784 11.576 75.4064 12.088C75.1344 12.6 74.9984 13.184 74.9984 13.84C74.9984 14.528 75.1424 15.136 75.4304 15.664C75.7184 16.176 76.1104 16.584 76.6064 16.888C77.1184 17.176 77.6944 17.32 78.3344 17.32C78.7664 17.32 79.1824 17.24 79.5824 17.08C79.9984 16.92 80.3824 16.712 80.7344 16.456L81.7664 18.112C81.2704 18.448 80.7104 18.72 80.0864 18.928C79.4784 19.136 78.8784 19.24 78.2864 19.24ZM86.1471 19V0.423999H88.3311V11.368L88.2831 10.96C88.6191 10.304 89.1311 9.76 89.8191 9.328C90.5231 8.896 91.3471 8.68 92.2911 8.68C93.2351 8.68 94.0031 8.96 94.5951 9.52C95.2031 10.064 95.5151 10.776 95.5311 11.656V19H93.2751V12.448C93.2591 11.904 93.0991 11.464 92.7951 11.128C92.5071 10.776 92.0511 10.6 91.4271 10.6C90.8511 10.6 90.3311 10.768 89.8671 11.104C89.4031 11.424 89.0351 11.864 88.7631 12.424C88.5071 12.984 88.3791 13.624 88.3791 14.344V19H86.1471ZM98.5488 13.936C98.5488 12.944 98.7808 12.048 99.2448 11.248C99.7248 10.448 100.381 9.816 101.213 9.352C102.045 8.888 102.989 8.656 104.045 8.656C105.133 8.656 106.085 8.888 106.901 9.352C107.717 9.816 108.349 10.448 108.797 11.248C109.245 12.048 109.469 12.944 109.469 13.936C109.469 14.928 109.245 15.832 108.797 16.648C108.349 17.448 107.709 18.08 106.877 18.544C106.061 19.008 105.109 19.24 104.021 19.24C102.965 19.24 102.021 19.024 101.189 18.592C100.373 18.144 99.7248 17.528 99.2448 16.744C98.7808 15.944 98.5488 15.008 98.5488 13.936ZM100.781 13.96C100.781 14.6 100.925 15.184 101.213 15.712C101.501 16.224 101.885 16.632 102.365 16.936C102.861 17.24 103.405 17.392 103.997 17.392C104.621 17.392 105.173 17.24 105.653 16.936C106.149 16.632 106.533 16.224 106.805 15.712C107.077 15.184 107.213 14.6 107.213 13.96C107.213 13.32 107.077 12.744 106.805 12.232C106.533 11.704 106.149 11.288 105.653 10.984C105.173 10.664 104.621 10.504 103.997 10.504C103.389 10.504 102.837 10.664 102.341 10.984C101.861 11.304 101.477 11.728 101.189 12.256C100.917 12.768 100.781 13.336 100.781 13.96ZM115.635 19.384C114.739 19.384 113.995 19.112 113.403 18.568C112.827 18.008 112.523 17.288 112.491 16.408V9.064H114.723V15.616C114.755 16.16 114.907 16.6 115.179 16.936C115.467 17.272 115.915 17.448 116.523 17.464C117.083 17.464 117.579 17.304 118.011 16.984C118.459 16.648 118.819 16.2 119.091 15.64C119.363 15.064 119.499 14.416 119.499 13.696V9.064H121.731V19H119.691L119.499 16.552L119.619 16.984C119.427 17.448 119.131 17.864 118.731 18.232C118.347 18.584 117.891 18.864 117.363 19.072C116.835 19.28 116.259 19.384 115.635 19.384ZM128.376 19.192C127.672 19.192 126.984 19.072 126.312 18.832C125.656 18.576 125.112 18.2 124.68 17.704L125.616 16.408C126.032 16.808 126.456 17.112 126.888 17.32C127.336 17.512 127.776 17.608 128.208 17.608C128.528 17.608 128.824 17.568 129.096 17.488C129.368 17.408 129.584 17.28 129.744 17.104C129.92 16.912 130.008 16.656 130.008 16.336C130.008 15.984 129.888 15.704 129.648 15.496C129.424 15.288 129.128 15.12 128.76 14.992C128.408 14.864 128.032 14.744 127.632 14.632C126.816 14.36 126.192 13.984 125.76 13.504C125.328 13.024 125.112 12.44 125.112 11.752C125.112 11.224 125.24 10.736 125.496 10.288C125.768 9.824 126.16 9.448 126.672 9.16C127.2 8.872 127.848 8.728 128.616 8.728C129.304 8.728 129.92 8.816 130.464 8.992C131.008 9.152 131.52 9.424 132 9.808L131.112 11.2C130.824 10.896 130.48 10.672 130.08 10.528C129.68 10.384 129.32 10.304 129 10.288C128.728 10.272 128.464 10.312 128.208 10.408C127.968 10.504 127.768 10.64 127.608 10.816C127.448 10.992 127.368 11.2 127.368 11.44C127.368 11.776 127.48 12.048 127.704 12.256C127.928 12.464 128.216 12.632 128.568 12.76C128.936 12.872 129.296 12.992 129.648 13.12C130.144 13.264 130.584 13.456 130.968 13.696C131.352 13.936 131.656 14.232 131.88 14.584C132.12 14.936 132.24 15.376 132.24 15.904C132.24 16.496 132.096 17.048 131.808 17.56C131.536 18.056 131.112 18.456 130.536 18.76C129.976 19.048 129.256 19.192 128.376 19.192ZM139.974 19.24C138.838 19.24 137.862 19.016 137.046 18.568C136.23 18.104 135.598 17.48 135.15 16.696C134.718 15.896 134.502 14.984 134.502 13.96C134.502 12.984 134.75 12.096 135.246 11.296C135.742 10.496 136.406 9.856 137.238 9.376C138.07 8.896 138.998 8.656 140.022 8.656C141.334 8.656 142.422 9.04 143.286 9.808C144.15 10.576 144.734 11.632 145.038 12.976L136.854 15.856L136.326 14.536L143.046 12.088L142.566 12.4C142.374 11.872 142.054 11.416 141.606 11.032C141.158 10.632 140.574 10.432 139.854 10.432C139.246 10.432 138.702 10.584 138.222 10.888C137.742 11.176 137.366 11.576 137.094 12.088C136.822 12.6 136.686 13.184 136.686 13.84C136.686 14.528 136.83 15.136 137.118 15.664C137.406 16.176 137.798 16.584 138.294 16.888C138.806 17.176 139.382 17.32 140.022 17.32C140.454 17.32 140.87 17.24 141.27 17.08C141.686 16.92 142.07 16.712 142.422 16.456L143.454 18.112C142.958 18.448 142.398 18.72 141.774 18.928C141.166 19.136 140.566 19.24 139.974 19.24Z" fill="url(#paint0_linear_103_22)"/>
<path d="M26.917 44.928C26.917 45.32 27.009 45.672 27.193 45.984C27.385 46.288 27.637 46.528 27.949 46.704C28.261 46.88 28.613 46.968 29.005 46.968C29.413 46.968 29.777 46.88 30.097 46.704C30.417 46.528 30.669 46.288 30.853 45.984C31.037 45.672 31.129 45.32 31.129 44.928V39.324H32.269V44.964C32.269 45.596 32.121 46.148 31.825 46.62C31.537 47.092 31.145 47.456 30.649 47.712C30.161 47.968 29.613 48.096 29.005 48.096C28.397 48.096 27.849 47.968 27.361 47.712C26.873 47.456 26.485 47.092 26.197 46.62C25.909 46.148 25.765 45.596 25.765 44.964V39.324H26.917V44.928ZM35.3703 43.032L35.4663 44.244L35.4183 44.052C35.5783 43.684 35.8383 43.392 36.1983 43.176C36.5583 42.952 36.9743 42.84 37.4463 42.84C37.9183 42.84 38.3023 42.98 38.5983 43.26C38.9023 43.532 39.0583 43.888 39.0663 44.328V48H37.9383V44.724C37.9303 44.452 37.8503 44.232 37.6983 44.064C37.5543 43.888 37.3263 43.8 37.0143 43.8C36.7263 43.8 36.4663 43.88 36.2343 44.04C36.0023 44.2 35.8183 44.42 35.6823 44.7C35.5543 44.98 35.4903 45.304 35.4903 45.672V48H34.3743V43.032H35.3703ZM41.0072 38.712H42.1232V48H41.0072V38.712ZM46.358 48.12C45.79 48.12 45.302 48.008 44.894 47.784C44.486 47.552 44.17 47.24 43.946 46.848C43.73 46.448 43.622 45.992 43.622 45.48C43.622 44.992 43.746 44.548 43.994 44.148C44.242 43.748 44.574 43.428 44.99 43.188C45.406 42.948 45.87 42.828 46.382 42.828C47.038 42.828 47.582 43.02 48.014 43.404C48.446 43.788 48.738 44.316 48.89 44.988L44.798 46.428L44.534 45.768L47.894 44.544L47.654 44.7C47.558 44.436 47.398 44.208 47.174 44.016C46.95 43.816 46.658 43.716 46.298 43.716C45.994 43.716 45.722 43.792 45.482 43.944C45.242 44.088 45.054 44.288 44.918 44.544C44.782 44.8 44.714 45.092 44.714 45.42C44.714 45.764 44.786 46.068 44.93 46.332C45.074 46.588 45.27 46.792 45.518 46.944C45.774 47.088 46.062 47.16 46.382 47.16C46.598 47.16 46.806 47.12 47.006 47.04C47.214 46.96 47.406 46.856 47.582 46.728L48.098 47.556C47.85 47.724 47.57 47.86 47.258 47.964C46.954 48.068 46.654 48.12 46.358 48.12ZM52.3524 48.12C51.8884 48.12 51.4644 48.02 51.0804 47.82C50.7044 47.62 50.4044 47.328 50.1804 46.944C49.9644 46.552 49.8564 46.076 49.8564 45.516C49.8564 44.964 49.9724 44.488 50.2044 44.088C50.4364 43.68 50.7444 43.368 51.1284 43.152C51.5204 42.936 51.9484 42.828 52.4124 42.828C52.8764 42.828 53.2684 42.936 53.5884 43.152C53.9084 43.36 54.1524 43.608 54.3204 43.896L54.2484 44.088L54.3564 43.032H55.3884V48H54.2724V46.704L54.3924 46.992C54.3604 47.072 54.2884 47.176 54.1764 47.304C54.0724 47.424 53.9284 47.548 53.7444 47.676C53.5684 47.804 53.3644 47.912 53.1324 48C52.9004 48.08 52.6404 48.12 52.3524 48.12ZM52.6524 47.196C52.9324 47.196 53.1844 47.144 53.4084 47.04C53.6324 46.936 53.8164 46.792 53.9604 46.608C54.1124 46.416 54.2164 46.188 54.2724 45.924V44.952C54.2084 44.712 54.0964 44.504 53.9364 44.328C53.7764 44.144 53.5844 44.004 53.3604 43.908C53.1364 43.804 52.8884 43.752 52.6164 43.752C52.3204 43.752 52.0484 43.824 51.8004 43.968C51.5524 44.112 51.3524 44.312 51.2004 44.568C51.0564 44.824 50.9844 45.124 50.9844 45.468C50.9844 45.788 51.0604 46.08 51.2124 46.344C51.3644 46.608 51.5684 46.816 51.8244 46.968C52.0804 47.12 52.3564 47.196 52.6524 47.196ZM58.7117 48.096C58.3597 48.096 58.0157 48.036 57.6797 47.916C57.3517 47.788 57.0797 47.6 56.8637 47.352L57.3317 46.704C57.5397 46.904 57.7517 47.056 57.9677 47.16C58.1917 47.256 58.4117 47.304 58.6277 47.304C58.7877 47.304 58.9357 47.284 59.0717 47.244C59.2077 47.204 59.3157 47.14 59.3957 47.052C59.4837 46.956 59.5277 46.828 59.5277 46.668C59.5277 46.492 59.4677 46.352 59.3477 46.248C59.2357 46.144 59.0877 46.06 58.9037 45.996C58.7277 45.932 58.5397 45.872 58.3397 45.816C57.9317 45.68 57.6197 45.492 57.4037 45.252C57.1877 45.012 57.0797 44.72 57.0797 44.376C57.0797 44.112 57.1437 43.868 57.2717 43.644C57.4077 43.412 57.6037 43.224 57.8597 43.08C58.1237 42.936 58.4477 42.864 58.8317 42.864C59.1757 42.864 59.4837 42.908 59.7557 42.996C60.0277 43.076 60.2837 43.212 60.5237 43.404L60.0797 44.1C59.9357 43.948 59.7637 43.836 59.5637 43.764C59.3637 43.692 59.1837 43.652 59.0237 43.644C58.8877 43.636 58.7557 43.656 58.6277 43.704C58.5077 43.752 58.4077 43.82 58.3277 43.908C58.2477 43.996 58.2077 44.1 58.2077 44.22C58.2077 44.388 58.2637 44.524 58.3757 44.628C58.4877 44.732 58.6317 44.816 58.8077 44.88C58.9917 44.936 59.1717 44.996 59.3477 45.06C59.5957 45.132 59.8157 45.228 60.0077 45.348C60.1997 45.468 60.3517 45.616 60.4637 45.792C60.5837 45.968 60.6437 46.188 60.6437 46.452C60.6437 46.748 60.5717 47.024 60.4277 47.28C60.2917 47.528 60.0797 47.728 59.7917 47.88C59.5117 48.024 59.1517 48.096 58.7117 48.096ZM62.2064 48V38.712H63.2984V44.184L63.2744 43.98C63.4424 43.652 63.6984 43.38 64.0424 43.164C64.3944 42.948 64.8064 42.84 65.2784 42.84C65.7504 42.84 66.1344 42.98 66.4304 43.26C66.7344 43.532 66.8904 43.888 66.8984 44.328V48H65.7704V44.724C65.7624 44.452 65.6824 44.232 65.5304 44.064C65.3864 43.888 65.1584 43.8 64.8464 43.8C64.5584 43.8 64.2984 43.884 64.0664 44.052C63.8344 44.212 63.6504 44.432 63.5144 44.712C63.3864 44.992 63.3224 45.312 63.3224 45.672V48H62.2064ZM75.2161 45.108L72.0001 39.324H73.4281L76.0081 44.112L75.6481 44.136L78.2041 39.324H79.6201L76.3801 45.108V48H75.2161V45.108ZM79.2236 45.468C79.2236 44.972 79.3396 44.524 79.5716 44.124C79.8116 43.724 80.1396 43.408 80.5556 43.176C80.9716 42.944 81.4436 42.828 81.9716 42.828C82.5156 42.828 82.9916 42.944 83.3996 43.176C83.8076 43.408 84.1236 43.724 84.3476 44.124C84.5716 44.524 84.6836 44.972 84.6836 45.468C84.6836 45.964 84.5716 46.416 84.3476 46.824C84.1236 47.224 83.8036 47.54 83.3876 47.772C82.9796 48.004 82.5036 48.12 81.9596 48.12C81.4316 48.12 80.9596 48.012 80.5436 47.796C80.1356 47.572 79.8116 47.264 79.5716 46.872C79.3396 46.472 79.2236 46.004 79.2236 45.468ZM80.3396 45.48C80.3396 45.8 80.4116 46.092 80.5556 46.356C80.6996 46.612 80.8916 46.816 81.1316 46.968C81.3796 47.12 81.6516 47.196 81.9476 47.196C82.2596 47.196 82.5356 47.12 82.7756 46.968C83.0236 46.816 83.2156 46.612 83.3516 46.356C83.4876 46.092 83.5556 45.8 83.5556 45.48C83.5556 45.16 83.4876 44.872 83.3516 44.616C83.2156 44.352 83.0236 44.144 82.7756 43.992C82.5356 43.832 82.2596 43.752 81.9476 43.752C81.6436 43.752 81.3676 43.832 81.1196 43.992C80.8796 44.152 80.6876 44.364 80.5436 44.628C80.4076 44.884 80.3396 45.168 80.3396 45.48ZM87.7667 48.192C87.3187 48.192 86.9467 48.056 86.6507 47.784C86.3627 47.504 86.2107 47.144 86.1947 46.704V43.032H87.3107V46.308C87.3267 46.58 87.4027 46.8 87.5387 46.968C87.6827 47.136 87.9067 47.224 88.2107 47.232C88.4907 47.232 88.7387 47.152 88.9547 46.992C89.1787 46.824 89.3587 46.6 89.4947 46.32C89.6307 46.032 89.6987 45.708 89.6987 45.348V43.032H90.8147V48H89.7947L89.6987 46.776L89.7587 46.992C89.6627 47.224 89.5147 47.432 89.3147 47.616C89.1227 47.792 88.8947 47.932 88.6307 48.036C88.3667 48.14 88.0787 48.192 87.7667 48.192ZM93.7414 43.032L93.8494 44.472L93.7894 44.28C93.9174 43.976 94.1014 43.72 94.3414 43.512C94.5894 43.296 94.8454 43.132 95.1094 43.02C95.3814 42.9 95.6174 42.84 95.8174 42.84L95.7574 43.944C95.3814 43.92 95.0494 43.992 94.7614 44.16C94.4814 44.328 94.2574 44.552 94.0894 44.832C93.9294 45.112 93.8494 45.412 93.8494 45.732V48H92.7454V43.032H93.7414ZM103.646 39.324C104.278 39.324 104.818 39.432 105.266 39.648C105.714 39.856 106.058 40.16 106.298 40.56C106.546 40.96 106.67 41.444 106.67 42.012C106.67 42.356 106.618 42.696 106.514 43.032C106.41 43.36 106.242 43.66 106.01 43.932C105.786 44.196 105.49 44.408 105.122 44.568C104.754 44.728 104.306 44.808 103.778 44.808H102.494V48H101.33V39.324H103.646ZM103.766 43.692C104.11 43.692 104.394 43.636 104.618 43.524C104.842 43.412 105.018 43.272 105.146 43.104C105.274 42.928 105.366 42.744 105.422 42.552C105.478 42.36 105.506 42.188 105.506 42.036C105.506 41.86 105.478 41.68 105.422 41.496C105.366 41.304 105.27 41.132 105.134 40.98C105.006 40.82 104.834 40.692 104.618 40.596C104.41 40.492 104.15 40.44 103.838 40.44H102.494V43.692H103.766ZM107.759 45.468C107.759 44.972 107.875 44.524 108.107 44.124C108.347 43.724 108.675 43.408 109.091 43.176C109.507 42.944 109.979 42.828 110.507 42.828C111.051 42.828 111.527 42.944 111.935 43.176C112.343 43.408 112.659 43.724 112.883 44.124C113.107 44.524 113.219 44.972 113.219 45.468C113.219 45.964 113.107 46.416 112.883 46.824C112.659 47.224 112.339 47.54 111.923 47.772C111.515 48.004 111.039 48.12 110.495 48.12C109.967 48.12 109.495 48.012 109.079 47.796C108.671 47.572 108.347 47.264 108.107 46.872C107.875 46.472 107.759 46.004 107.759 45.468ZM108.875 45.48C108.875 45.8 108.947 46.092 109.091 46.356C109.235 46.612 109.427 46.816 109.667 46.968C109.915 47.12 110.187 47.196 110.483 47.196C110.795 47.196 111.071 47.12 111.311 46.968C111.559 46.816 111.751 46.612 111.887 46.356C112.023 46.092 112.091 45.8 112.091 45.48C112.091 45.16 112.023 44.872 111.887 44.616C111.751 44.352 111.559 44.144 111.311 43.992C111.071 43.832 110.795 43.752 110.483 43.752C110.179 43.752 109.903 43.832 109.655 43.992C109.415 44.152 109.223 44.364 109.079 44.628C108.943 44.884 108.875 45.168 108.875 45.48ZM115.21 40.848H116.326V43.056H117.694V43.932H116.326V48H115.21V43.932H114.298V43.056H115.21V40.848ZM121.346 48.12C120.778 48.12 120.29 48.008 119.882 47.784C119.474 47.552 119.158 47.24 118.934 46.848C118.718 46.448 118.61 45.992 118.61 45.48C118.61 44.992 118.734 44.548 118.982 44.148C119.23 43.748 119.562 43.428 119.978 43.188C120.394 42.948 120.858 42.828 121.37 42.828C122.026 42.828 122.57 43.02 123.002 43.404C123.434 43.788 123.726 44.316 123.878 44.988L119.786 46.428L119.522 45.768L122.882 44.544L122.642 44.7C122.546 44.436 122.386 44.208 122.162 44.016C121.938 43.816 121.646 43.716 121.286 43.716C120.982 43.716 120.71 43.792 120.47 43.944C120.23 44.088 120.042 44.288 119.906 44.544C119.77 44.8 119.702 45.092 119.702 45.42C119.702 45.764 119.774 46.068 119.918 46.332C120.062 46.588 120.258 46.792 120.506 46.944C120.762 47.088 121.05 47.16 121.37 47.16C121.586 47.16 121.794 47.12 121.994 47.04C122.202 46.96 122.394 46.856 122.57 46.728L123.086 47.556C122.838 47.724 122.558 47.86 122.246 47.964C121.942 48.068 121.642 48.12 121.346 48.12ZM126.273 43.032L126.369 44.244L126.321 44.052C126.481 43.684 126.741 43.392 127.101 43.176C127.461 42.952 127.877 42.84 128.349 42.84C128.821 42.84 129.205 42.98 129.501 43.26C129.805 43.532 129.961 43.888 129.969 44.328V48H128.841V44.724C128.833 44.452 128.753 44.232 128.601 44.064C128.457 43.888 128.229 43.8 127.917 43.8C127.629 43.8 127.369 43.88 127.137 44.04C126.905 44.2 126.721 44.42 126.585 44.7C126.457 44.98 126.393 45.304 126.393 45.672V48H125.277V43.032H126.273ZM132.39 40.848H133.506V43.056H134.874V43.932H133.506V48H132.39V43.932H131.478V43.056H132.39V40.848ZM136.222 43.032H137.338V48H136.222V43.032ZM136.138 41.232C136.138 41.056 136.206 40.908 136.342 40.788C136.486 40.668 136.642 40.608 136.81 40.608C136.978 40.608 137.126 40.668 137.254 40.788C137.39 40.908 137.458 41.056 137.458 41.232C137.458 41.416 137.39 41.568 137.254 41.688C137.126 41.8 136.978 41.856 136.81 41.856C136.642 41.856 136.486 41.796 136.342 41.676C136.206 41.556 136.138 41.408 136.138 41.232ZM141.333 48.12C140.869 48.12 140.445 48.02 140.061 47.82C139.685 47.62 139.385 47.328 139.161 46.944C138.945 46.552 138.837 46.076 138.837 45.516C138.837 44.964 138.953 44.488 139.185 44.088C139.417 43.68 139.725 43.368 140.109 43.152C140.501 42.936 140.929 42.828 141.393 42.828C141.857 42.828 142.249 42.936 142.569 43.152C142.889 43.36 143.133 43.608 143.301 43.896L143.229 44.088L143.337 43.032H144.369V48H143.253V46.704L143.373 46.992C143.341 47.072 143.269 47.176 143.157 47.304C143.053 47.424 142.909 47.548 142.725 47.676C142.549 47.804 142.345 47.912 142.113 48C141.881 48.08 141.621 48.12 141.333 48.12ZM141.633 47.196C141.913 47.196 142.165 47.144 142.389 47.04C142.613 46.936 142.797 46.792 142.941 46.608C143.093 46.416 143.197 46.188 143.253 45.924V44.952C143.189 44.712 143.077 44.504 142.917 44.328C142.757 44.144 142.565 44.004 142.341 43.908C142.117 43.804 141.869 43.752 141.597 43.752C141.301 43.752 141.029 43.824 140.781 43.968C140.533 44.112 140.333 44.312 140.181 44.568C140.037 44.824 139.965 45.124 139.965 45.468C139.965 45.788 140.041 46.08 140.193 46.344C140.345 46.608 140.549 46.816 140.805 46.968C141.061 47.12 141.337 47.196 141.633 47.196ZM146.3 38.712H147.416V48H146.3V38.712Z" fill="url(#paint1_linear_103_22)"/>
<line x1="0.75" y1="13.5" x2="20.75" y2="13.5" stroke="#FF921B" stroke-width="3"/>
<line x1="0.75" y1="-0.75" x2="19.25" y2="-0.75" transform="matrix(4.37114e-08 1 1 -4.37114e-08 179 6)" stroke="#FF921B" stroke-width="1.5" stroke-linecap="round"/>
<path d="M182.5 8L182.5 24" stroke="#FF921B" stroke-width="2" stroke-linecap="round"/>
<path d="M186.5 10L186.5 22" stroke="#FF921B" stroke-width="2.5" stroke-linecap="round"/>
<line x1="178" y1="16.5" x2="158" y2="16.5" stroke="#FF921B" stroke-width="3"/>
<defs>
<linearGradient id="paint0_linear_103_22" x1="15" y1="13" x2="158" y2="13" gradientUnits="userSpaceOnUse">
<stop stop-color="#F66844"/>
<stop offset="1" stop-color="#FF921B" stop-opacity="0.5"/>
</linearGradient>
<linearGradient id="paint1_linear_103_22" x1="15" y1="39" x2="158" y2="48" gradientUnits="userSpaceOnUse">
<stop stop-color="#F66844"/>
<stop offset="1" stop-color="#FF921B" stop-opacity="0.5"/>
</linearGradient>
</defs>
</svg>
